<svg xmlns="http://www.w3.org/2000/svg" viewBox="0 0 377.09 291.22">
    <defs>
        <style>
            /* circle > */ .cls-1 {
            fill:none;
            stroke:#ec7263;
            stroke-miterlimit:10;
            stroke-width:6px; }

            /* patch > */ .cls-2 {
            fill:#533557;
            stroke:#533557;
            fill-opacity: 1; }

            /* text > */ .cls-3 {
            fill: #F6C390;
            }

            /* letter I > */ .I {
            fill:#533557;
            stroke:#533557;
            }
        </style>
    </defs>
    <g id="Layer_1">
        <circle class="cls-1" cx="188.71" cy="145.61" r="142.61"/>
    </g>

    <g id="Layer_3">
        <rect class="cls-2" x="43" y="129" width="8" height="36"/>
        <rect class="cls-2" x="327" y="129" width="8" height="36"/>
    </g>

    <g id="Layer_2">
        <path class="cls-3 S"
              d="M34,173.17l4.75-2.5c2.11,4.18,5.37,6.19,9.79,6.19s7.25-1.39,7.25-4.61c0-3.07-2.21-4.51-8.07-6.24-6.86-2-12.38-3.88-12.38-10.65,0-6.05,4.94-10,12.14-10,7,0,11.14,3.46,13.3,7.64l-4.37,3a9.81,9.81,0,0,0-9-5.18c-3.94,0-6.2,1.44-6.2,4,0,3.31,2.55,4.42,8.36,6.14,6.72,2,12.09,4.18,12.09,10.85,0,5.81-4.94,10.37-13.39,10.37C41.2,182.19,36.21,178.54,34,173.17Z"
              transform="translate(-33.96 -16.39)"/>
        <path class="cls-3 I"
              d="M78.16,181.52V146h6v35.52Z"
              transform="translate(-33.96 -16.39)"/>
        <path class="cls-3 N"
              d="M102.26,181.52V146h6.1l16.8,25.34h.09V146h5.57v35.52h-5.47l-17.43-25.87h-.09v25.87Z"
              transform="translate(-33.96 -16.39)"/>
        <path class="cls-3 G"
              d="M146.75,163.61c0-11.37,6.2-18.29,15.65-18.29,6.72,0,11.67,3.12,13.78,11.19L170.61,158c-1.58-5.33-4-7.11-8.25-7.11s-9.56,2.6-9.56,12.58,4.75,13.34,9.79,13.34c4.71,0,7.93-2.78,8.31-8h-7.15V164h12.91v17.57h-4.94v-5.14h-.1a10.22,10.22,0,0,1-9.7,5.81C151.75,182.19,146.75,174.46,146.75,163.61Z"
              transform="translate(-33.96 -16.39)"/>
        <path class="cls-3 U"
              d="M192.88,168.56V146h6v22c0,5.43,2.36,8.64,7.83,8.64s7.77-3.12,7.77-8.59V146h5.91v22.51c0,8.07-4.56,13.59-13.73,13.59C196.87,182.1,192.88,176.62,192.88,168.56Z"
              transform="translate(-33.96 -16.39)"/>
        <path class="cls-3 L"
              d="M237.57,181.52V146h6v30.05h16.37v5.47Z"
              transform="translate(-33.96 -16.39)"/>
        <path class="cls-3 A"
              d="M272.08,181.52l12.58-35.67h5.9l12.58,35.67H297l-2.89-8.45H280.63l-2.93,8.45Zm10.37-13.73h9.89l-4.85-14.4h-.1Z"
              transform="translate(-33.96 -16.39)"/>
        <path class="cls-3 R"
              d="M318,181.52V146h12.72c8.45,0,13.35,3.4,13.35,10.65,0,5.67-2.93,8.88-7.88,10.08l8.36,14.79h-6.44l-8-14h-6.24v14Zm5.9-19.25h6.58c5,0,7.68-1.25,7.68-5.47s-2.64-5.33-7.73-5.33h-6.53Z"
              transform="translate(-33.96 -16.39)"/>
        <path class="cls-3 I"
              d="M361.12,181.52V146h6.05v35.52Z"
              transform="translate(-33.96 -16.39)"/>
        <path class="cls-3 S"
              d="M383.34,173.17l4.76-2.5c2.11,4.18,5.37,6.19,9.79,6.19s7.25-1.39,7.25-4.61c0-3.07-2.21-4.51-8.06-6.24-6.87-2-12.39-3.88-12.39-10.65,0-6.05,4.94-10,12.14-10,7,0,11.14,3.46,13.3,7.64l-4.37,3a9.81,9.81,0,0,0-9-5.18c-3.94,0-6.2,1.44-6.2,4,0,3.31,2.55,4.42,8.36,6.14,6.72,2,12.09,4.18,12.09,10.85,0,5.81-4.94,10.37-13.39,10.37C390.59,182.19,385.6,178.54,383.34,173.17Z"
              transform="translate(-39.96 -16.39)"/>
    </g>
</svg>